<svg width="220" height="56" viewBox="0 0 220 56" fill="none" xmlns="http://www.w3.org/2000/svg">
  <defs>
    <linearGradient id="shieldGrad" x1="12" y1="8" x2="36" y2="40" gradientUnits="userSpaceOnUse">
      <stop stop-color="#1C4FD8"/>
      <stop offset="1" stop-color="#162456"/>
    </linearGradient>
  </defs>
  <rect x="8" y="8" width="32" height="40" rx="12" fill="url(#shieldGrad)"/>
  <path d="M24 16C19.6 16 16 19.6 16 24V32C16 36.4 19.6 40 24 40C28.4 40 32 36.4 32 32V24C32 19.6 28.4 16 24 16ZM24 21C26.2 21 28 22.8 28 25V31C28 33.2 26.2 35 24 35C21.8 35 20 33.2 20 31V25C20 22.8 21.8 21 24 21Z" fill="#F7FAFF"/>
  <text x="50" y="35" fill="#111827" font-size="30" font-family="Inter, Arial, sans-serif" font-weight="700">HireShield</text>
</svg>
